Coordinates
version=1
nRows=29
nColumns=24
inDegrees=yes

Units are S.I. units (second, meters, Newtons, ...)
Angles are in degrees.

endheader
time	pelvis_tilt	pelvis_list	pelvis_rotation	pelvis_tx	pelvis_ty	pelvis_tz	hip_flexion_r	hip_adduction_r	hip_rotation_r	knee_angle_r	ankle_angle_r	subtalar_angle_r	mtp_angle_r	hip_flexion_l	hip_adduction_l	hip_rotation_l	knee_angle_l	ankle_angle_l	subtalar_angle_l	mtp_angle_l	lumbar_extension	lumbar_bending	lumbar_rotation
      1.14533333	     -4.01989314	      5.03486252	      0.48481332	      0.12664247	      0.99342354	      0.29159992	     27.94507895	     -5.59918389	     -1.67213507	    -71.36978933	     -0.97175603	    -13.75912992	     -0.07326842	     11.05406358	      9.92260335	      4.80235600	    -10.04707611	      0.66540972	    -13.00812333	      0.27343916	      0.50007106	     -2.42924021	      4.90475172
      1.14950000	     -3.93180020	      4.92797421	      0.49983727	      0.13180662	      0.99427710	      0.29160551	     28.33955986	     -5.43513380	     -1.60550131	    -70.89241702	     -0.37884639	    -14.00632565	     -0.21435340	     10.43495898	      9.80696242	      4.98219248	     -9.69329404	      0.76237688	    -13.06634851	      0.19636524	      0.36279557	     -2.30158320	      4.80151503
      1.15366667	     -3.89604631	      4.79880042	      0.52239932	      0.13693648	      0.99502106	      0.29162796	     28.76897815	     -5.24436676	     -1.54586883	    -70.34482851	      0.21809364	    -14.18629475	     -0.35929866	      9.89618379	      9.66529455	      5.14686918	     -9.38277234	      0.86365464	    -13.11399757	      0.11498479	      0.28624914	     -2.15317579	      4.72341020
      1.15783333	     -3.90482201	      4.64929200	      0.54788152	      0.14205330	      0.99566667	      0.29166366	     29.22275207	     -5.03073832	     -1.49268333	    -69.72316927	      0.78030320	    -14.31658896	     -0.42634547	      9.42630076	      9.49821681	      5.27795250	     -9.11007829	      0.97096098	    -13.12177009	      0.07557602	      0.27017146	     -1.98227352	      4.68184644
      1.16200000	     -3.86746468	      4.50391235	      0.57714007	      0.14717819	      0.99635383	      0.29169771	     29.60037582	     -4.82893541	     -1.45409556	    -69.03720988	      1.35527793	    -14.48903812	     -0.50287535	      8.89847743	      9.33485858	      5.42333587	     -8.82073770	      1.09049562	    -13.13694073	      0.03139027	      0.19454854	     -1.81869141	      4.61535163
      1.16616667	     -3.85164389	      4.37881259	      0.60311296	      0.15228850	      0.99695221	      0.29172646	     29.98901366	     -4.65265254	     -1.41055458	    -68.30321900	      1.90248993	    -14.65191130	     -0.57613988	      8.39632930	      9.19206186	      5.56313203	     -8.53108911	      1.20452591	    -13.15586783	     -0.01072907	      0.13939952	     -1.67018966	      4.54693519
      1.17033333	     -3.78299769	      4.27056408	      0.62727713	      0.15741255	      0.99757348	      0.29174737	     30.29775216	     -4.50246441	     -1.37376965	    -67.51060546	      2.41214859	    -14.86437560	     -0.74101607	      7.81993936	      9.06733010	      5.72738853	     -8.20589168	      1.31745378	    -13.21168855	     -0.10159446	      0.02003667	     -1.54258657	      4.42021635
      1.17450000	     -3.76174334	      4.13714798	      0.66111674	      0.16250976	      0.99810142	      0.29178356	     30.63107012	     -4.32327244	     -1.34680506	    -66.64671418	      2.90788002	    -15.03894361	     -0.93828283	      7.31842212	      8.91332792	      5.87542408	     -7.92584067	      1.43753461	    -13.24045054	     -0.20777500	     -0.04554605	     -1.38850401	      4.32690673
      1.17866667	     -3.79571214	      4.00951818	      0.70120442	      0.16757997	      0.99848835	      0.29181735	     31.00757700	     -4.15413137	     -1.32232094	    -65.72839050	      3.37297475	    -15.14293867	     -1.01277231	      6.89887321	      8.76454201	      5.98970389	     -7.68460169	      1.55928259	    -13.23690106	     -0.24726761	     -0.03860830	     -1.24304099	      4.29171679
      1.18283333	     -3.78966563	      3.87555733	      0.74315001	      0.17266349	      0.99891115	      0.29186021	     31.30996799	     -3.98133417	     -1.31044765	    -64.74203182	      3.81509632	    -15.30694803	     -1.09681393	      6.42668115	      8.60661712	      6.11572049	     -7.42568018	      1.69382487	    -13.23532315	     -0.28940181	     -0.08503199	     -1.09295797	      4.22550823
      1.18700000	     -3.75147604	      3.78681514	      0.77517681	      0.17775070	      0.99930489	      0.29189697	     31.56732925	     -3.86047695	     -1.28801877	    -63.72014955	      4.18150273	    -15.55791964	     -1.29998715	      5.90090637	      8.49588565	      6.25219031	     -7.12547688	      1.82218463	    -13.25994349	     -0.38795308	     -0.17683455	     -0.99204463	      4.08262089
      1.19116667	     -3.80083865	      3.67041148	      0.82406769	      0.18279928	      0.99953434	      0.29193997	     31.89410462	     -3.71348006	     -1.28167973	    -62.63377506	      4.55408111	    -15.66664423	     -1.37857857	      5.50464931	      8.35558054	      6.36561472	     -6.89146498	      1.95163236	    -13.24775176	     -0.42470299	     -0.16520755	     -0.86454652	      4.04547213
      1.19533333	     -3.80233273	      3.55771988	      0.87348596	      0.18787162	      0.99980960	      0.29197331	     32.13722681	     -3.57475103	     -1.28168518	    -61.48087582	      4.87857114	    -15.84381045	     -1.47141034	      5.04884353	      8.21788240	      6.48175906	     -6.64501329	      2.08478858	    -13.23726022	     -0.46572439	     -0.20700210	     -0.73655055	      3.97331903
      1.19950000	     -3.80668257	      3.46368744	      0.92216550	      0.19293336	      1.00001640	      0.29201457	     32.36596365	     -3.45643291	     -1.27990815	    -60.28253743	      5.14812893	    -16.03853477	     -1.57511561	      4.59584344	      8.09885239	      6.59513286	     -6.39495807	      2.22017631	    -13.22464330	     -0.50953803	     -0.24361140	     -0.62813058	      3.88503451
      1.20366667	     -3.77432631	      3.38152923	      0.96259818	      0.19800512	      1.00024515	      0.29207415	     32.53106856	     -3.34751499	     -1.27501783	    -59.02788032	      5.32261025	    -16.32007092	     -1.79202189	      4.09069685	      7.98871431	      6.70214119	     -6.11792487	      2.35336033	    -13.21535892	     -0.59977812	     -0.32852532	     -0.53950556	      3.73724440
      1.20783333	     -3.83007535	      3.29156444	      1.02473682	      0.20304486	      1.00028434	      0.29210171	     32.77405820	     -3.24709912	     -1.29575790	    -57.73470030	      5.54364903	    -16.43840739	     -1.90124527	      3.70976181	      7.87430179	      6.80139805	     -5.89759871	      2.48461233	    -13.19467490	     -0.64295055	     -0.31391861	     -0.44207122	      3.68715757
      1.21200000	     -3.82649101	      3.23251584	      1.06733972	      0.20810687	      1.00036486	      0.29216276	     32.93033802	     -3.16717208	     -1.29192961	    -56.39156590	      5.64661854	    -16.67939511	     -2.11342521	      3.24401785	      7.78760138	      6.89723283	     -5.63594988	      2.62717785	    -13.16814373	     -0.72479665	     -0.36209126	     -0.37956670	      3.55776725
      1.21616667	     -3.86364452	      3.14607758	      1.13412019	      0.21315604	      1.00037235	      0.29219980	     33.09815258	     -3.07632770	     -1.32844765	    -54.98942920	      5.78386982	    -16.77437869	     -2.22796860	      2.84451364	      7.67304431	      6.98546191	     -5.41652799	      2.75022122	    -13.13717148	     -0.76698739	     -0.37010576	     -0.28948435	      3.50654101
      1.22033333	     -3.89094324	      3.07965413	      1.19139010	      0.21821840	      1.00034050	      0.29225158	     33.23583243	     -3.00280852	     -1.35474833	    -53.54773922	      5.84638350	    -16.89701776	     -2.34110741	      2.42670483	      7.57812584	      7.06851802	     -5.18320988	      2.88505690	    -13.09825767	     -0.80648732	     -0.38472763	     -0.21805220	      3.42882933
      1.22450000	     -3.93922762	      3.02407657	      1.24879995	      0.22327233	      1.00022734	      0.29229735	     33.37778775	     -2.94296901	     -1.38179221	    -52.07070185	      5.86702219	    -17.01375029	     -2.45460674	      2.03804320	      7.49597955	      7.13955188	     -4.96153968	      3.02019653	    -13.06014023	     -0.84505085	     -0.37757222	     -0.16002507	      3.34321685
      1.22866667	     -3.96275885	      2.97595682	      1.30675754	      0.22834160	      1.00012251	      0.29234838	     33.46712087	     -2.89479524	     -1.41892251	    -50.55102588	      5.85049710	    -17.09540941	     -2.56665076	      1.61998457	      7.41984027	      7.20476550	     -4.73635523	      3.15411918	    -13.01207184	     -0.88285050	     -0.39659889	     -0.10898095	      3.25501693
      1.23283333	     -3.99528207	      2.92843684	      1.36540616	      0.23341460	      0.99996973	      0.29240193	     33.54173901	     -2.85030403	     -1.46354967	    -48.99210781	      5.79880175	    -17.14479061	     -2.67944239	      1.21537071	      7.34397831	      7.25930188	     -4.51715527	      3.29031784	    -12.96176985	     -0.92114867	     -0.40768102	     -0.06396632	      3.16505580
      1.23700000	     -3.98151767	      2.89830144	      1.40961693	      0.23850406	      0.99984214	      0.29248309	     33.54619321	     -2.81530780	     -1.49253165	    -47.40366027	      5.70022409	    -17.18828570	     -2.86812186	      0.74990668	      7.28257507	      7.29928347	     -4.27852916	      3.43763899	    -12.87520916	     -0.98883319	     -0.48136874	     -0.03537867	      3.03112876
      1.24116667	     -4.06338548	      2.85466339	      1.47857216	      0.24359409	      0.99954642	      0.29252965	     33.62888842	     -2.78699034	     -1.56291439	    -45.78492299	      5.62011524	    -17.10764465	     -2.96215383	      0.41419306	      7.21301909	      7.33727433	     -4.09344715	      3.57095539	    -12.83528429	     -1.02253644	     -0.42113680	      0.01052744	      2.98351372
      1.24533333	     -4.07461465	      2.82552254	      1.52915196	      0.24869010	      0.99931459	      0.29260452	     33.61276918	     -2.76174108	     -1.61073209	    -44.13427721	      5.46892340	    -17.00923243	     -3.09726872	     -0.00786598	      7.15536168	      7.36366406	     -3.88747582	      3.71847056	    -12.74978216	     -1.07429359	     -0.46684202	      0.03642375	      2.87944400
      1.24950000	     -4.12443723	      2.80614999	      1.58659148	      0.25380290	      0.99898590	      0.29267259	     33.62209751	     -2.75607369	     -1.67876833	    -42.47550547	      5.32656526	    -16.84062051	     -3.21106481	     -0.38149347	      7.10952459	      7.38051623	     -3.69828468	      3.86464178	    -12.68165365	     -1.12201087	     -0.45306810	      0.04940392	      2.80055196
      1.25366667	     -4.19082654	      2.77480714	      1.64568813	      0.25895000	      0.99860206	      0.29274683	     33.62506610	     -2.74372043	     -1.77130279	    -40.79756474	      5.17202874	    -16.62656402	     -3.28233979	     -0.73532656	      7.05144889	      7.38261107	     -3.51475797	      4.01352009	    -12.63092833	     -1.15400783	     -0.40540295	      0.07099555	      2.74088042
      1.25783333	     -4.20457941	      2.75622065	      1.69886864	      0.26410549	      0.99826766	      0.29282657	     33.54921755	     -2.74128586	     -1.85885811	    -39.10137596	      4.98246432	    -16.34182680	     -3.34868996	     -1.14566952	      7.00548764	      7.38124647	     -3.33362010	      4.16479052	    -12.55490908	     -1.18938594	     -0.43414583	      0.08515102	      2.66141157
      1.26200000	     -4.23628085	      2.75549528	      1.74907192	      0.26926261	      0.99786253	      0.29291383	     33.48075508	     -2.75396063	     -1.93317077	    -37.41038416	      4.79696020	    -15.99411534	     -3.41141174	     -1.52730742	      6.98040119	      7.37510146	     -3.17368403	      4.31986323	    -12.46711173	     -1.23194291	     -0.44464070	      0.08765536	      2.57551124
